<?xml version="1.0" encoding="UTF-8"?>
<svg xmlns="http://www.w3.org/2000/svg" xmlns:xlink="http://www.w3.org/1999/xlink" viewBox="0 0 548.43 356.43">
  <defs>
    <style>
      .cls-1 {
        mix-blend-mode: screen;
        opacity: .7;
      }

      .cls-2 {
        fill: url(#linear-gradient);
      }

      .cls-2, .cls-3, .cls-4, .cls-5, .cls-6, .cls-7, .cls-8, .cls-9, .cls-10, .cls-11, .cls-12, .cls-13, .cls-14, .cls-15 {
        stroke-width: 0px;
      }

      .cls-3 {
        fill: url(#linear-gradient-6);
      }

      .cls-4 {
        fill: #1670b8;
      }

      .cls-16 {
        isolation: isolate;
      }

      .cls-5 {
        fill: #164fff;
      }

      .cls-6 {
        fill: url(#linear-gradient-5);
      }

      .cls-7 {
        fill: none;
      }

      .cls-8 {
        fill: #f5b616;
      }

      .cls-9 {
        fill: url(#linear-gradient-2);
      }

      .cls-10 {
        fill: url(#linear-gradient-7);
      }

      .cls-11 {
        fill: url(#linear-gradient-3);
      }

      .cls-17 {
        clip-path: url(#clippath);
      }

      .cls-12 {
        fill: url(#linear-gradient-8);
      }

      .cls-13 {
        fill: #fcfff2;
      }

      .cls-14 {
        fill: #fbb03b;
      }

      .cls-15 {
        fill: url(#linear-gradient-4);
      }
    </style>
    <clipPath id="clippath">
      <rect class="cls-7" width="548.43" height="356.43"/>
    </clipPath>
    <linearGradient id="linear-gradient" x1="-3495.22" y1="2559.39" x2="-3221.1" y2="2559.39" gradientTransform="translate(2965.75 3408.34) rotate(87.45)" gradientUnits="userSpaceOnUse">
      <stop offset="0" stop-color="#ed4800"/>
      <stop offset=".62" stop-color="#5b20a4"/>
      <stop offset="1" stop-color="#004cd6"/>
    </linearGradient>
    <linearGradient id="linear-gradient-2" x1="-227.85" y1="-1796.57" x2="-67.89" y2="-1952.53" gradientTransform="translate(710.03 2150.63) rotate(170.57) scale(1 -1)" gradientUnits="userSpaceOnUse">
      <stop offset="0" stop-color="#ff1686"/>
      <stop offset=".09" stop-color="#f91587"/>
      <stop offset=".21" stop-color="#e9158a"/>
      <stop offset=".33" stop-color="#cf1590"/>
      <stop offset=".47" stop-color="#ab1598"/>
      <stop offset=".62" stop-color="#7d15a3"/>
      <stop offset=".71" stop-color="#5b15ab"/>
      <stop offset="1" stop-color="#0042cc"/>
    </linearGradient>
    <linearGradient id="linear-gradient-3" x1="-3088.09" y1="-3693.96" x2="-2692.77" y2="-3693.96" gradientTransform="translate(4938.82 1552.6) rotate(67.74) scale(1 -1)" gradientUnits="userSpaceOnUse">
      <stop offset="0" stop-color="#ed1c24"/>
      <stop offset="1" stop-color="#ed5c24"/>
    </linearGradient>
    <linearGradient id="linear-gradient-4" x1="-2968.59" y1="-3839.8" x2="-2783.29" y2="-3839.8" xlink:href="#linear-gradient-3"/>
    <linearGradient id="linear-gradient-5" x1="-3384.81" y1="2630.03" x2="-3299.51" y2="2562.51" gradientTransform="translate(3070.26 3418.58) rotate(85.72)" gradientUnits="userSpaceOnUse">
      <stop offset="0" stop-color="#0090ff"/>
      <stop offset=".65" stop-color="#5b15ab"/>
      <stop offset=".69" stop-color="#7d15a3"/>
      <stop offset=".76" stop-color="#ab1598"/>
      <stop offset=".83" stop-color="#cf1590"/>
      <stop offset=".9" stop-color="#e9158a"/>
      <stop offset=".95" stop-color="#f91587"/>
      <stop offset="1" stop-color="#ff1686"/>
    </linearGradient>
    <linearGradient id="linear-gradient-6" x1="137.5" y1="-1665.51" x2="221.73" y2="-1665.51" gradientTransform="translate(542.19 1832.44) rotate(175.77) scale(1 -1)" xlink:href="#linear-gradient-3"/>
    <linearGradient id="linear-gradient-7" x1="47.07" y1="-1394.34" x2="132.92" y2="-1394.34" gradientTransform="translate(397.01 1509.58) rotate(-179.05) scale(1 -1)" xlink:href="#linear-gradient-3"/>
    <linearGradient id="linear-gradient-8" x1="-33.96" y1="-1579.23" x2="164.36" y2="-1579.23" gradientTransform="translate(542.19 1832.44) rotate(175.77) scale(1 -1)" gradientUnits="userSpaceOnUse">
      <stop offset="0" stop-color="#1400d6"/>
      <stop offset="1" stop-color="#ed1c24"/>
    </linearGradient>
  </defs>
  <g class="cls-16">
    <g id="Layer_2" data-name="Layer 2">
      <g id="Layer_1-2" data-name="Layer 1">
        <g class="cls-17">
          <g class="cls-1">
            <polygon class="cls-2" points="131 36.07 389.15 298.95 377.37 228.53 131 36.07"/>
            <polygon class="cls-9" points="559.32 245.48 558.42 308.82 198.79 72 559.32 245.48"/>
            <polygon class="cls-11" points="502.36 363.6 265.99 128.81 557.72 358.49 557.63 364.37 502.36 363.6"/>
            <polygon class="cls-8" points="390.59 156.11 441.24 214.02 519.84 214.37 390.59 156.11"/>
            <polygon class="cls-5" points="557.97 340.38 421.32 247.12 558.43 307.97 557.97 340.38"/>
            <polygon class="cls-4" points="420.8 205.03 401.28 207.91 408.79 226.1 420.8 205.03"/>
            <polygon class="cls-15" points="340.91 361.36 280.89 360.53 228.05 273.46 340.91 361.36"/>
            <polygon class="cls-4" points="302.18 330.11 282.65 332.99 290.16 351.19 302.18 330.11"/>
            <polygon class="cls-13" points="405.48 147.46 392.51 135.6 375.42 140.87 405.48 147.46"/>
            <polygon class="cls-6" points="239.97 321.22 222.06 267.2 267.87 286.77 182.81 224.3 239.97 321.22"/>
            <polygon class="cls-3" points="242.43 199.91 284.02 206.81 196.28 162.56 242.43 199.91"/>
            <polygon class="cls-10" points="344.04 126.37 372.99 120.85 287.46 100.92 344.04 126.37"/>
            <polygon class="cls-14" points="416.52 362.41 363.97 361.68 166.67 165.7 416.52 362.41"/>
            <polygon class="cls-12" points="260.05 161.1 466.38 363.1 465.71 363.09 258.89 231.3 337.74 257.48 260.05 161.1"/>
          </g>
        </g>
      </g>
    </g>
  </g>
</svg>